<svg version="1.1" xmlns="http://www.w3.org/2000/svg" xmlns:xlink="http://www.w3.org/1999/xlink" width="1310" height="978" viewBox="0 0 1310 978"><defs/><g/><g><g transform="translate(131,586.8)"><g transform="translate(0,0)"><g transform="matrix(1,0,0,1,0,0)"><path fill="rgb(0,0,0)" stroke="none" paint-order="stroke fill markers" d=" M 0 0 L 0 -62 L 9.5 -67.48482755730144 L 9.5 0 L 20.124665165944194 15.751713878545791 L 10.624665165944192 21.236541435847236 L 0 5.484827557301444 L 0 0" fill-opacity="1"/><g transform="translate(10.624665165944192,21.236541435847236)"><path fill="rgb(0,0,0)" stroke="none" paint-order="stroke fill markers" d=" M 0 0 L 9.5 -5.484827557301444 L 7.375066966811161 -8.635170333010603 L -2.1249330331888383 -3.1503427757091584 L 0 0" fill-opacity="1"/></g><g transform="translate(29.624665165944194,-57.217941236057094)"><path fill="rgb(0,0,0)" stroke="none" paint-order="stroke fill markers" d=" M 0 0 L 0 105.45448267190433 L -9.5 110.93931022920577 L -9.5 5.484827557301444 L -20.124665165944194 -10.266886321244346 L -10.624665165944192 -15.751713878545791 L 0 0" fill-opacity="1"/><g transform="translate(-9.5,110.93931022920577)"><path fill="rgb(0,0,0)" stroke="none" paint-order="stroke fill markers" d=" M 0 0 L -9.5 5.484827557301444 L -20.124665165944194 -10.266886321244346 L -10.624665165944192 -15.751713878545791 L 0 0" fill-opacity="1"/><g transform="translate(-9.5,5.484827557301444)"><path fill="rgb(0,0,0)" stroke="none" paint-order="stroke fill markers" d=" M 0 0 L 9.5 -5.484827557301444 L 7.375066966811161 -8.635170333010603 L -2.1249330331888383 -3.1503427757091584 L 0 0" fill-opacity="1"/></g></g><g transform="translate(-10.624665165944192,-15.751713878545791)"><path fill="rgb(0,0,0)" stroke="none" paint-order="stroke fill markers" d=" M 0 0 L -9.5 5.484827557301444 L -7.375066966811161 8.635170333010603 L 2.1249330331888383 3.1503427757091584 L 0 0" fill-opacity="1"/></g></g></g></g><g transform="translate(40.24933033188839,0)"><g transform="matrix(1,0,0,1,0,0)"><path fill="rgb(0,0,0)" stroke="none" paint-order="stroke fill markers" d=" M 0 0 L 0 -62 L -5.312332582972096 -69.8758569392729 L 4.187667417027904 -75.36068449657434 L 9.5 -67.48482755730144 L 9.5 15.751713878545791 L 0 21.236541435847236 L 0 0" fill-opacity="1"/><g transform="translate(29.624665165944194,-57.217941236057094)"><path fill="rgb(0,0,0)" stroke="none" paint-order="stroke fill markers" d=" M 0 0 L 0 20.666666666666668 L -9.5 26.15149422396811 L -9.5 5.484827557301444 L -20.124665165944194 -10.266886321244346 L -10.624665165944192 -15.751713878545791 L 0 0" fill-opacity="1"/><g transform="translate(-10.624665165944192,-15.751713878545791)"><path fill="rgb(0,0,0)" stroke="none" paint-order="stroke fill markers" d=" M 0 0 L -9.5 5.484827557301444 L -7.375066966811161 8.635170333010603 L 2.1249330331888383 3.1503427757091584 L 0 0" fill-opacity="1"/></g></g></g></g><g transform="translate(80.49866066377677,0)"><g transform="matrix(1,0,0,1,0,0)"><path fill="rgb(0,0,0)" stroke="none" paint-order="stroke fill markers" d=" M 0 0 L 0 -62 L -5.312332582972096 -69.8758569392729 L 4.187667417027904 -75.36068449657434 L 9.5 -67.48482755730144 L 9.5 15.751713878545791 L 0 21.236541435847236 L 0 0" fill-opacity="1"/><path fill="rgb(0,0,0)" stroke="none" paint-order="stroke fill markers" d=" M 0 -83.9020655168167 L 0 -99.65377939536249 L 9.5 -105.13860695266393 L 9.5 -89.38689307411815 L 0 -83.9020655168167" fill-opacity="1"/></g></g><g transform="translate(100.62332582972097,0)"><g transform="matrix(1,0,0,1,0,0)"><g transform="translate(29.624665165944194,10.266886321244346)"><path fill="rgb(0,0,0)" stroke="none" paint-order="stroke fill markers" d=" M 0 0 L -9.5 5.484827557301444 L -29.624665165944194 -24.351215522115382 L -20.124665165944194 -29.836043079416825 L 0 0" fill-opacity="1"/></g><g transform="translate(9.5,-67.48482755730144)"><path fill="rgb(0,0,0)" stroke="none" paint-order="stroke fill markers" d=" M 0 0 L -9.5 5.484827557301444 L 10.624665165944192 35.32087063671827 L 20.124665165944194 29.836043079416825 L 0 0" fill-opacity="1"/></g><g transform="translate(29.624665165944194,-57.217941236057094)"><path fill="rgb(0,0,0)" stroke="none" paint-order="stroke fill markers" d=" M 0 67.48482755730144 L 0 105.45448267190433 L -9.5 110.93931022920577 L -9.5 72.96965511460289 L 0 67.48482755730144" fill-opacity="1"/><g transform="translate(-9.5,51.73311367875565)"><path fill="rgb(0,0,0)" stroke="none" paint-order="stroke fill markers" d=" M 0 0 L 0 -26.67912936328173 L 9.5 -32.163956920583175 L 9.5 -5.484827557301444 L 0 0" fill-opacity="1"/></g><g transform="translate(-9.5,110.93931022920577)"><path fill="rgb(0,0,0)" stroke="none" paint-order="stroke fill markers" d=" M 0 0 L -9.5 5.484827557301444 L -14.812332582972097 -2.3910293819714514 L -5.312332582972096 -7.875856939272896 L 0 0" fill-opacity="1"/></g></g></g></g><g transform="translate(140.87265616160937,0)"><g transform="matrix(1,0,0,1,0,0)"><g transform="translate(29.624665165944194,10.266886321244346)"><path fill="rgb(0,0,0)" stroke="none" paint-order="stroke fill markers" d=" M 0 0 L -9.5 5.484827557301444 L -29.624665165944194 -24.351215522115382 L -20.124665165944194 -29.836043079416825 L 0 0" fill-opacity="1"/></g><g transform="translate(9.5,-67.48482755730144)"><path fill="rgb(0,0,0)" stroke="none" paint-order="stroke fill markers" d=" M 0 0 L -9.5 5.484827557301444 L 10.624665165944192 35.32087063671827 L 20.124665165944194 29.836043079416825 L 0 0" fill-opacity="1"/></g><g transform="translate(29.624665165944194,-57.217941236057094)"><path fill="rgb(0,0,0)" stroke="none" paint-order="stroke fill markers" d=" M 0 67.48482755730144 L 0 105.45448267190433 L -9.5 110.93931022920577 L -9.5 72.96965511460289 L 0 67.48482755730144" fill-opacity="1"/><g transform="translate(-9.5,51.73311367875565)"><path fill="rgb(0,0,0)" stroke="none" paint-order="stroke fill markers" d=" M 0 0 L 0 -26.67912936328173 L 9.5 -32.163956920583175 L 9.5 -5.484827557301444 L 0 0" fill-opacity="1"/></g><g transform="translate(-9.5,110.93931022920577)"><path fill="rgb(0,0,0)" stroke="none" paint-order="stroke fill markers" d=" M 0 0 L -9.5 5.484827557301444 L -14.812332582972097 -2.3910293819714514 L -5.312332582972096 -7.875856939272896 L 0 0" fill-opacity="1"/></g></g></g></g><g transform="translate(181.12198649349773,0)"><g transform="matrix(1,0,0,1,0,0)"><path fill="rgb(0,0,0)" stroke="none" paint-order="stroke fill markers" d=" M 0 0 L 0 -111.25171387854579 L -5.312332582972096 -119.12757081781868 L 4.187667417027904 -124.61239837512012 L 9.5 -116.73654143584723 L 9.5 15.751713878545791 L 0 21.236541435847236 L 0 0" fill-opacity="1"/></g></g><g transform="translate(201.24665165944194,0)"><g transform="matrix(1,0,0,1,0,0)"><path fill="rgb(0,0,0)" stroke="none" paint-order="stroke fill markers" d=" M 0 0 L 0 -62 L 9.5 -67.48482755730144 L 9.5 0 L 20.124665165944194 15.751713878545791 L 10.624665165944192 21.236541435847236 L 0 5.484827557301444 L 0 0" fill-opacity="1"/><g transform="translate(10.624665165944192,21.236541435847236)"><path fill="rgb(0,0,0)" stroke="none" paint-order="stroke fill markers" d=" M 0 0 L 9.5 -5.484827557301444 L 7.375066966811161 -8.635170333010603 L -2.1249330331888383 -3.1503427757091584 L 0 0" fill-opacity="1"/></g><g transform="translate(20.124665165944194,-31.066447012088986) rotate(180,0,0) matrix(1,-0.5773502691896257,0,1,0,0)"><path fill="rgb(0,0,0)" stroke="none" paint-order="stroke fill markers" d=" M -1 0 L 11.624665165944192 0 L 11.624665165944192 9.5 L -1 9.5 L -1 0 Z" fill-opacity="1"/></g><g transform="translate(29.624665165944194,-57.217941236057094)"><path fill="rgb(0,0,0)" stroke="none" paint-order="stroke fill markers" d=" M 0 0 L 0 20.666666666666668 L -9.5 26.15149422396811 L -9.5 5.484827557301444 L -20.124665165944194 -10.266886321244346 L -10.624665165944192 -15.751713878545791 L 0 0" fill-opacity="1"/><path fill="rgb(0,0,0)" stroke="none" paint-order="stroke fill markers" d=" M 0 41.33333333333333 L 0 67.48482755730144 L -9.5 72.96965511460289 L -9.5 46.81816089063477 L 0 41.33333333333333" fill-opacity="1"/><g transform="translate(-10.624665165944192,-15.751713878545791)"><path fill="rgb(0,0,0)" stroke="none" paint-order="stroke fill markers" d=" M 0 0 L -9.5 5.484827557301444 L -7.375066966811161 8.635170333010603 L 2.1249330331888383 3.1503427757091584 L 0 0" fill-opacity="1"/></g></g></g></g><g transform="translate(241.49598199133032,0)"><g transform="matrix(1,0,0,1,0,0)"><path fill="rgb(0,0,0)" stroke="none" paint-order="stroke fill markers" d=" M 0 0 L 0 -62 L 9.5 -67.48482755730144 L 9.5 0 L 20.124665165944194 15.751713878545791 L 10.624665165944192 21.236541435847236 L 0 5.484827557301444 L 0 0" fill-opacity="1"/><g transform="translate(10.624665165944192,21.236541435847236)"><path fill="rgb(0,0,0)" stroke="none" paint-order="stroke fill markers" d=" M 0 0 L 9.5 -5.484827557301444 L 7.375066966811161 -8.635170333010603 L -2.1249330331888383 -3.1503427757091584 L 0 0" fill-opacity="1"/></g><g transform="translate(0,-62)"><path fill="rgb(0,0,0)" stroke="none" paint-order="stroke fill markers" d=" M 0 0 L 2.1249330331888383 3.1503427757091584 L 11.624933033188839 -2.334484781592286 L 9.5 -5.484827557301444 L 0 0" fill-opacity="1"/></g><g transform="translate(29.624665165944194,-57.217941236057094)"><path fill="rgb(0,0,0)" stroke="none" paint-order="stroke fill markers" d=" M 0 0 L 0 72.96965511460289 L -9.5 78.45448267190433 L -9.5 5.484827557301444 L -24.874665165944194 -17.309050921679866 L -24.874665165944194 -54.0337726424887 L -30.186997748916287 -61.90962958176159 L -20.686997748916287 -67.39445713906304 L -15.374665165944192 -59.51860019979014 L -15.374665165944192 -22.79387847898131 L 0 0" fill-opacity="1"/></g></g></g></g></g></svg>